HIERARCHY
ROOT pelvis
{
  OFFSET 0 100 0
  CHANNELS 6 Xposition Yposition Zposition Zrotation Xrotation Yrotation
  JOINT pelvis_right_femur
  {
    OFFSET -10.78128 -3.44521 -0.5502486
    CHANNELS 3 Zrotation Xrotation Yrotation
    JOINT right_femur_tibia
    {
      OFFSET -0.8047443 -44.0398 -0.1307829
      CHANNELS 3 Zrotation Xrotation Yrotation
      JOINT right_tibia_foot
      {
        OFFSET 3.006224 -47.83518 -5
        CHANNELS 3 Zrotation Xrotation Yrotation
        End Site
        {
          OFFSET 0 -5 15
        }
      }
    }
  }
  JOINT pelvis_left_femur
  {
    OFFSET 10.78128 -3.44521 -0.5502486
    CHANNELS 3 Zrotation Xrotation Yrotation
    JOINT left_femur_tibia
    {
      OFFSET 0.8047443 -44.0398 -0.1307829
      CHANNELS 3 Zrotation Xrotation Yrotation
      JOINT left_tibia_foot
      {
        OFFSET -4.370144 -48.10324 -4.275266
        CHANNELS 3 Zrotation Xrotation Yrotation
        End Site
        {
          OFFSET 0 -5 15
        }
      }
    }
  }
  JOINT pelvis_spine1
  {
    OFFSET 0 6.468898 -3.129235
    CHANNELS 3 Zrotation Xrotation Yrotation
    JOINT spine1
    {
      OFFSET 0 23.15396 4.99043
      CHANNELS 3 Zrotation Xrotation Yrotation
      JOINT spine2
      {
        OFFSET 0 20.79997 -5.064912
        CHANNELS 3 Zrotation Xrotation Yrotation
        JOINT neck
        {
          OFFSET 0 14.38658 9.616178
          CHANNELS 3 Zrotation Xrotation Yrotation
          End Site
          {
            OFFSET 0 20 0
          }
        }
      }
      JOINT right_manubrium
      {
        OFFSET -5.722621 16.35077 3.967754
        CHANNELS 3 Zrotation Xrotation Yrotation
        JOINT right_clavicle
        {
          OFFSET -13.16364 1.694482 -4.693211
          CHANNELS 3 Zrotation Xrotation Yrotation
          JOINT right_humerus
          {
            OFFSET -28.5034 -0.3100689 -2.792744
            CHANNELS 3 Zrotation Xrotation Yrotation
            JOINT right_radius
            {
              OFFSET -25.15693 0.02248979 -1.271978
              CHANNELS 3 Zrotation Xrotation Yrotation
              End Site
              {
                OFFSET -15 0 0
              }
            }
          }
        }
      }
      JOINT left_manubrium
      {
        OFFSET 5.722621 16.35077 3.967754
        CHANNELS 3 Zrotation Xrotation Yrotation
        JOINT left_clavicle
        {
          OFFSET 13.16364 1.694482 -4.693211
          CHANNELS 3 Zrotation Xrotation Yrotation
          JOINT left_humerus
          {
            OFFSET 29.39168 -1.063119 -2.237045
            CHANNELS 3 Zrotation Xrotation Yrotation
            JOINT left_radius
            {
              OFFSET 24.59957 -0.9528479 0.9047498
              CHANNELS 3 Zrotation Xrotation Yrotation
              End Site
              {
                OFFSET 15 -0 -0
              }
            }
          }
        }
      }
    }
  }
}
MOTION
Frames: 9
Frame Time: 0.0416666666667
0 103.5113 0 1.52745 -2.909522 0.01793693 2.086932 -11.97862 7.17139 -0 36.63475 -0 -6.096464 -16.13604 -4.906777 -6.736461 13.59422 -24.03669 -0 6.268526 -0 -0.3893885 -20.27854 22.86399 -4.108954 -3.418247 3.246696 2.399195 8.153924 -7.99019 0.5918258 23.80355 7.484051 3.641822 -22.09557 8.100425 6.104129 -18.98481 11.19812 86.78618 34.66853 -21.81463 -0 0 15.11128 -9.118194 7.947031 5.670921 3.923252 -18.70595 -3.533861 -99.35575 40.13324 27.12536 0 0 -19.19593 -11.60716 16.34507 26.95918
0.1583232 103.8517 1.389405 1.278347 -2.473678 -0.01612343 2.516857 -13.74368 7.339851 -0 36.31478 -0 -6.02082 -15.55849 -4.80853 -6.622447 13.41146 -23.94378 -0 6.226949 -0 -0.2573302 -20.67103 22.68707 -3.925642 -3.112936 3.292191 2.430061 8.118977 -7.98473 0.6758243 23.53136 7.558648 3.709277 -22.49044 8.28721 6.177666 -18.98576 11.22082 86.63773 34.81117 -21.64553 -0 0 15.35795 -8.831219 8.05262 5.550102 4.124817 -18.76289 -3.358034 -99.20026 39.63682 27.04884 0 0 -19.20307 -10.76016 16.33317 26.23977
0.3349347 104.1089 2.961973 0.8888963 -1.618736 0.09719571 3.0228 -17.37905 6.942461 -0 34.83326 -0 -6.001714 -13.49151 -4.512661 -6.403787 13.07482 -23.09385 -0 5.778464 -0 -0.4979799 -21.62028 21.5996 -3.651185 -2.458849 3.246889 2.466071 8.140475 -8.126368 0.6537448 22.9814 7.873805 3.948365 -23.11754 8.473888 6.295764 -18.87404 11.30437 86.66229 35.36208 -21.70397 -0 0 15.32367 -9.23599 8.703397 5.834524 4.516387 -19.25682 -3.269978 -98.11262 38.69381 26.16137 0 0 -20.14504 -9.454536 16.01119 25.1716
0.497128 104.2637 4.724466 0.4873209 -0.9694204 0.2907024 3.763047 -20.55199 6.980891 -0 32.66864 -0 -5.915605 -11.93718 -4.427761 -6.10792 13.15232 -22.7295 -0 6.321657 -0 -1.234329 -22.75633 20.77707 -3.294265 -1.856905 3.253967 2.472229 7.951633 -8.083088 0.8658946 22.57821 7.97385 4.137207 -23.59081 8.720829 6.205083 -18.68581 11.22534 86.63869 35.16421 -21.70947 -0 0 15.47562 -8.972983 8.875795 5.597036 4.960383 -19.46018 -3.063796 -97.97629 38.482 25.9321 0 0 -20.62972 -8.957635 15.81502 25.00245
0.6387703 104.3211 6.744033 0.08429645 -0.2666847 0.5497824 4.510951 -23.69608 6.976782 -0 29.99144 -0 -5.880111 -10.25636 -4.328719 -5.796319 13.35256 -22.31527 -0 7.127381 -0 -2.161966 -23.87193 19.81549 -2.935193 -1.280151 3.24176 2.486578 7.715215 -8.040526 1.085968 22.17647 8.06853 4.345261 -24.06481 8.951668 6.078505 -18.42102 11.11427 86.67817 34.95931 -21.79721 -0 0 15.47349 -8.730302 9.031102 5.361729 5.427817 -19.68322 -2.838359 -97.77543 38.31345 25.58174 0 0 -21.20808 -8.510923 15.61243 24.86847
0.759588 104.2818 9.107774 -0.3379967 0.5551636 0.8774469 5.234762 -26.90505 6.852137 -0 26.86138 -0 -5.924332 -8.402299 -4.17069 -5.470242 13.65467 -21.74964 -0 8.055217 -0 -3.17858 -24.85972 18.65183 -2.575664 -0.7310904 3.186771 2.525067 7.448009 -8.031251 1.276921 21.74889 8.185423 4.566219 -24.5789 9.165072 5.939939 -18.06445 10.98937 86.79207 34.87814 -21.96089 -0 0 15.23223 -8.593081 9.230292 5.21611 5.913929 -19.96321 -2.587223 -97.2613 37.96997 24.89001 0 0 -21.94536 -7.83127 15.39209 24.43722
0.8608448 104.1363 11.93741 -0.781869 1.500313 1.283747 5.848123 -30.14473 6.473516 -0 23.23678 -0 -6.074015 -6.366201 -3.945957 -5.120528 14.11686 -20.90093 -0 9.00923 -0 -4.274891 -25.58897 17.18849 -2.217814 -0.2310049 3.04593 2.596643 7.159447 -8.08993 1.40182 21.29856 8.335816 4.779015 -25.10325 9.336972 5.778398 -17.57588 10.85358 87.03505 34.97546 -22.23698 -0 0 14.61668 -8.704041 9.535177 5.259908 6.401243 -20.33902 -2.333466 -96.18118 37.29986 23.59324 0 0 -22.945 -6.770313 15.11317 23.50489
0.9428913 103.8711 15.39212 -1.249816 2.518344 1.770738 6.253578 -33.19923 5.727902 -0 19.15237 -0 -6.343545 -4.285199 -3.685142 -4.729765 14.85223 -19.66422 -0 10.01023 -0 -5.450258 -25.82485 15.36916 -1.848133 0.1678296 2.768289 2.709331 6.851632 -8.242472 1.433124 20.85593 8.501479 4.932001 -25.56592 9.436889 5.561355 -16.90624 10.70002 87.47035 35.22494 -22.65702 -0 0 13.48931 -9.171595 9.968852 5.567151 6.844652 -20.80877 -2.104575 -94.361 36.15331 21.47622 0 0 -24.2362 -5.226827 14.7251 21.9048
1.004429 103.4932 19.64958 -1.745105 3.465843 2.312139 6.391952 -35.52635 4.609303 -0 14.99111 -0 -6.71664 -2.524111 -3.474496 -4.277114 15.95447 -18.0002 -0 11.31748 -0 -6.669192 -25.14421 13.2404 -1.422896 0.3718887 2.311511 2.866498 6.544926 -8.499942 1.349803 20.48232 8.629467 4.933865 -25.85258 9.427157 5.25695 -16.03418 10.53028 88.14042 35.50765 -23.2185 -0 0 11.78399 -10.04157 10.51436 6.172711 7.132053 -21.29776 -1.945479 -91.83505 34.39557 18.53975 0 0 -25.67635 -3.20136 14.16043 19.58737
